{"title":"Spy Kids 4 2011 TS XViD DTRG","uid":6620973,"size":1420350619,"categoryP":"video","categoryS":"movies","magnet":"?xt=urn:btih:57234934c07168bc5f6fe648fe36bea7723b3af6&amp;dn=Spy+Kids+4+2011+TS+XViD+DTRG&amp;tr=udp%3A%2F%2Ftracker.openbittorrent.com%3A80&amp;tr=udp%3A%2F%2Fopen.demonii.com%3A1337&amp;tr=udp%3A%2F%2Ftracker.coppersurfer.tk%3A6969&amp;tr=udp%3A%2F%2Fexodus.desync.com%3A6969","seeders":0,"leechers":1,"uploader":"SAFCukO09","files":3,"time":1313994178,"description":"Format : AVI\nFormat/Info : Audio Video Interleave\nFile size : 1.31 GiB\nDuration : 1h 21mn\nOverall bit rate : 2 294 Kbps\nWriting library : VirtualDub build 32842/release\n\nVideo\nID : 0\nFormat : MPEG-4 Visual\nFormat profile : Advanced Simple@L5\nFormat settings, BVOP : 2\nFormat settings, QPel : No\nFormat settings, GMC : No warppoints\nFormat settings, Matrix : Default (H.263)\nMuxing mode : Packed bitstream\nCodec ID : XVID\nCodec ID/Hint : XviD\nDuration : 1h 21mn\nBit rate : 2 157 Kbps\nWidth : 642 pixels\nHeight : 342 pixels\nDisplay aspect ratio : 1.877\nFrame rate : 25.000 fps\nColor space : YUV\nChroma subsampling : 4:2:0\nBit depth : 8 bits\nScan type : Progressive\nCompression mode : Lossy\nBits/(Pixel*Frame) : 0.393\nStream size : 1.23 GiB (94%)\nWriting library : XviD 64\n\nAudio\nID : 1\nFormat : MPEG Audio\nFormat version : Version 1\nFormat profile : Layer 3\nMode : Joint stereo\nMode extension : MS Stereo\nCodec ID : 55\nCodec ID/Hint : MP3\nDuration : 1h 21mn\nBit rate mode : Constant\nBit rate : 128 Kbps\nChannel(s) : 2 channels\nSampling rate : 44.1 KHz\nCompression mode : Lossy\nStream size : 74.9 MiB (6%)\nAlignment : Split accross interleaves\nInterleave, duration : 40 ms (1.00 video frame)\nInterleave, preload duration : 500 ms\nWriting library : LAME3.98r\nEncoding settings : -m j -V 4 -q 2 -lowpass 17 -b 128\n\n\n\n\n\n\n &lt;a href=&quot;\nhttp://www.imdb.com/title/tt1517489/&quot; rel=&quot;nofollow&quot; target=&quot;_NEW&quot;&gt;\nhttp://www.imdb.com/title/tt1517489/&lt;/a&gt;\n\n\n\n\n\n\n\n\n\nUsers: (603 votes) 10 reviews | Critics: 6 reviews Metascore: 38/100 (based on 6 reviews from Metacritic.com)\n\n\nA retired spy is called back into action, and to bond with her new step-children, she invites them along for the adventure to stop the evil Timekeeper from taking over the world.\n\nDirector: Robert Rodriguez\nWriter: Robert Rodriguez (screenplay)\nStars: Jessica Alba, Jeremy Piven and Joel McHale\n\n\n &lt;a href=&quot;\nhttp://www.leetleech.org/images/24852401118302917358.png&quot; rel=&quot;nofollow&quot; target=&quot;_NEW&quot;&gt;\nhttp://www.leetleech.org/images/24852401118302917358.png&lt;/a&gt;\n &lt;a href=&quot;\nhttp://www.leetleech.org/images/56490882964925992053.png&quot; rel=&quot;nofollow&quot; target=&quot;_NEW&quot;&gt;\nhttp://www.leetleech.org/images/56490882964925992053.png&lt;/a&gt;","torrent":{"xt":"urn:btih:57234934c07168bc5f6fe648fe36bea7723b3af6","amp;dn":"Spy+Kids+4+2011+TS+XViD+DTRG","amp;tr":["udp%3A%2F%2Ftracker.openbittorrent.com%3A80","udp%3A%2F%2Fopen.demonii.com%3A1337","udp%3A%2F%2Ftracker.coppersurfer.tk%3A6969","udp%3A%2F%2Fexodus.desync.com%3A6969"],"infoHash":"57234934c07168bc5f6fe648fe36bea7723b3af6","infoHashBuffer":{"type":"Buffer","data":[87,35,73,52,192,113,104,188,95,111,230,72,254,54,190,167,114,59,58,246]},"announce":[],"urlList":[]}}